<svg xmlns="http://www.w3.org/2000/svg" viewBox="0 0 32 32">
  <path fill="#E34F26" d="M5.902 27.201L3.655 2h24.69l-2.25 25.197L15.985 30 5.902 27.201z"/>
  <path fill="#EF652A" d="M16 27.858l8.17-2.265 1.922-21.532H16v23.797z"/>
  <path fill="#FFFFFF" d="M16 13.191h4.09l.282-3.165H16V6.935h7.75l-.074.829-.744 8.348H16v-3.091z"/>
  <path fill="#EBEBEB" d="M16.019 21.218l-.014.004-3.442-.929-.22-2.465H9.24l.433 4.852 6.346 1.758.014-.004v-3.22z"/>
  <path fill="#FFFFFF" d="M19.827 16.151l-.372 4.139-3.447.93v3.22l6.337-1.756.047-.522.537-6.02z"/>
  <path fill="#EBEBEB" d="M16.011 6.935v3.091H8.555l-.062-.695-.141-1.567-.074-.829H16.011z"/>
  <path fill="#EBEBEB" d="M16 13.191v3.091H12.601l-.062-.695-.14-1.567-.074-.829H16z"/>
</svg>
