<svg xmlns="http://www.w3.org/2000/svg" viewBox="0 0 32 32">
  <path fill="#F7DF1E" d="M0 0h32v32H0V0z"/>
  <path fill="#000000" d="M20.4 25.6c-1.2 0-2.2-.4-2.8-1.2l2.2-1.3c.3.4.6.6 1.1.6.5 0 .8-.2.8-.5 0-.8-2.4-.8-2.4-2.4 0-1.1.9-1.9 2.2-1.9.9 0 1.6.3 2.1.8l-2.1 1.3c-.2-.3-.4-.4-.7-.4-.3 0-.5.2-.5.4 0 .7 2.4.7 2.4 2.4 0 1.2-.9 2-2.3 2zm-8.8 0c-1.2 0-2.2-.4-2.8-1.2l2.2-1.3c.3.4.6.6 1.1.6.5 0 .8-.2.8-.5 0-.8-2.4-.8-2.4-2.4 0-1.1.9-1.9 2.2-1.9.9 0 1.6.3 2.1.8l-2.1 1.3c-.2-.3-.4-.4-.7-.4-.3 0-.5.2-.5.4 0 .7 2.4.7 2.4 2.4 0 1.2-.9 2-2.3 2z"/>
</svg>
